<svg version="1.1" id="Layer_1" xmlns="http://www.w3.org/2000/svg" xmlns:xlink="http://www.w3.org/1999/xlink" x="0px"
	y="0px" width="100%" viewBox="0 0 512 512" enable-background="new 0 0 512 512" xml:space="preserve">
	<defs>
		<filter id="glow-effect" x="-50%" y="-50%" width="200%" height="200%">
			<feFlood result="flood" flood-color="#00a6ff" flood-opacity="1"></feFlood>
			<feComposite in="flood" result="mask" in2="SourceGraphic" operator="in"></feComposite>
			<feGaussianBlur stdDeviation="50" result="coloredBlur" />
			<feMerge>
				<feMergeNode in="coloredBlur" />
				<feMergeNode in="SourceGraphic" />
			</feMerge>
		</filter>
	</defs>
	<path fill="#ffffff" opacity="1.000000" stroke="none" filter="url(#glow-effect)" d="
M1.000000,180.468658 
	C3.391606,178.157303 2.418103,175.380356 2.890473,173.023544 
	C7.772150,148.667328 17.789417,126.522186 33.131878,107.130989 
	C49.904999,85.931580 70.447723,69.047684 94.587013,56.488689 
	C115.263016,45.731537 137.049408,38.386002 159.948792,34.935276 
	C182.159683,31.588295 204.530472,31.584967 226.948242,34.437748 
	C248.195358,37.141556 268.532196,42.847427 287.837646,51.765793 
	C313.587433,63.661201 335.969757,80.136810 354.499146,101.990288 
	C370.749573,121.155960 381.594299,142.843094 387.769653,166.916367 
	C391.117310,179.966583 392.261536,193.441025 391.252167,206.935608 
	C390.897247,211.680557 393.141663,213.145844 397.089020,213.572113 
	C423.999084,216.478210 447.929504,226.761246 469.223572,243.205902 
	C481.977966,253.055725 492.004608,265.292480 499.903564,279.422760 
	C506.554932,291.321228 510.442413,304.010559 512.906738,317.645569 
	C513.000000,327.687561 513.000000,337.375122 513.000000,347.531342 
	C509.719788,368.577881 501.655853,387.086487 488.727539,403.411652 
	C486.935394,405.674622 488.091400,407.637207 488.550842,409.504059 
	C493.936554,431.387665 499.499847,453.227539 504.998993,475.083313 
	C505.438019,476.828033 505.748932,478.604980 506.107269,480.309296 
	C503.594482,482.271912 501.827881,480.401184 500.026306,479.505249 
	C478.118378,468.610199 456.209503,457.716156 434.372498,446.680176 
	C431.329712,445.142426 428.735260,444.888031 425.477509,446.112915 
	C405.294769,453.701538 384.118896,455.002289 363.080200,453.077942 
	C333.398926,450.362976 306.617950,439.651642 283.660156,419.905548 
	C268.079468,406.504486 256.403015,390.618378 249.252960,371.387848 
	C247.910507,367.777252 246.491653,365.904297 241.687424,367.108795 
	C220.513580,372.417511 198.784882,372.357269 177.262329,371.074127 
	C158.088760,369.931061 139.252029,365.609802 121.110191,358.956482 
	C118.008507,357.818970 115.509323,358.151245 112.637375,359.566620 
	C81.775345,374.776642 50.862282,389.883087 19.962429,405.016327 
	C18.640257,405.663879 17.389072,406.661926 15.437797,405.762726 
	C15.274539,401.386810 16.956882,397.203796 18.032848,392.970947 
	C25.103014,365.156830 32.283459,337.370605 39.519588,309.599121 
	C40.325863,306.504761 39.458576,304.053345 37.597481,301.807251 
	C19.347471,279.781860 6.694548,255.152802 2.442039,226.585510 
	C2.377531,226.152176 1.895664,225.780960 1.304286,225.190369 
	C1.000000,210.312439 1.000000,195.624878 1.000000,180.468658 
M73.280289,110.777977 
	C68.008179,115.634323 63.046467,120.841560 58.795074,126.565895 
	C41.058929,150.446960 30.818136,176.814514 32.271938,207.129227 
	C32.998077,222.270615 36.495010,236.644333 42.705997,250.353653 
	C49.908840,266.252228 59.884502,280.270966 72.545563,292.320435 
	C74.792046,294.458374 75.875549,296.734161 75.033188,299.866913 
	C72.967850,307.547852 70.980156,315.250031 69.009293,322.955933 
	C66.971100,330.925140 64.989578,338.908813 62.778759,347.699310 
	C65.528671,346.510559 67.372421,345.798553 69.142250,344.934998 
	C83.203239,338.074371 97.260422,331.205719 111.291847,324.284943 
	C113.753738,323.070648 115.993782,322.246613 118.846741,323.468536 
	C135.060165,330.413025 151.820114,335.316376 169.342361,337.934875 
	C189.259445,340.911163 209.127625,340.559021 228.804703,337.279236 
	C249.511703,333.827759 269.089355,326.626923 287.471863,316.228668 
	C297.215485,310.717010 306.407349,304.410522 314.688416,297.034241 
	C329.187927,284.118927 340.736206,268.859528 348.934723,251.074585 
	C360.191895,226.654617 362.763855,201.426788 356.768738,175.327545 
	C352.188171,155.386429 342.588593,138.034012 329.497803,122.338882 
	C313.940704,103.686790 294.629364,90.257004 272.781891,80.307938 
	C256.885468,73.068924 240.223907,68.446228 222.805206,66.046616 
	C202.687912,63.275238 182.682602,63.520519 162.809097,66.834229 
	C142.584000,70.206566 123.423195,77.091888 105.463081,87.187759 
	C93.974960,93.645546 83.372078,101.250740 73.280289,110.777977 
M296.890686,347.498993 
	C292.955292,350.740906 288.002899,351.962463 283.515442,354.075928 
	C277.784119,356.775299 277.398743,356.985077 279.959412,362.808167 
	C284.483521,373.096100 290.630096,382.434235 298.620392,390.253448 
	C312.622345,403.955627 329.131531,413.396851 348.318329,418.165161 
	C371.488861,423.923492 394.748535,424.021271 416.672729,414.981293 
	C428.406647,410.143066 437.516571,410.454468 447.544769,417.066895 
	C450.567902,419.060272 453.899689,421.141754 458.552094,421.464874 
	C456.702911,413.801544 455.042358,406.589203 453.188019,399.427002 
	C452.595306,397.137726 452.637024,395.301758 454.356415,393.471649 
	C457.198364,390.446655 459.908386,387.292328 462.578857,384.112579 
	C473.093964,371.591980 480.149536,357.329773 481.491547,340.995972 
	C484.078613,309.508057 470.982025,284.984741 446.322845,266.157898 
	C429.952637,253.659531 411.083008,247.357590 390.923553,244.414551 
	C387.501862,243.915024 385.474548,244.857941 384.317505,248.547882 
	C375.829132,275.617676 360.281738,298.117035 339.675385,317.416412 
	C326.979004,329.307526 313.069916,339.345795 296.890686,347.498993 
z" />
	<path fill="#ffffff" opacity="1.000000" stroke="none" filter="url(#glow-effect)" d="
M151.350372,191.050903 
	C151.344894,197.354080 151.237930,203.167725 151.373901,208.975677 
	C151.447403,212.115112 150.367783,213.467209 147.073013,213.394958 
	C139.770905,213.234879 132.461594,213.264008 125.157913,213.382385 
	C122.115303,213.431686 120.553398,212.575134 120.625076,209.186905 
	C120.783081,201.718613 120.792519,194.242279 120.630096,186.774292 
	C120.555428,183.340454 122.180222,182.562073 125.189789,182.621704 
	C131.330673,182.743423 137.475769,182.645523 143.619110,182.652252 
	C151.322083,182.660690 151.322083,182.666824 151.350372,191.050903 
z" />
	<path fill="#ffffff" opacity="1.000000" stroke="none" filter="url(#glow-effect)" d="
M211.350006,197.003815 
	C210.857742,202.556549 213.591003,208.988327 210.087555,212.332840 
	C206.853821,215.419907 200.570557,213.117432 195.636902,213.324783 
	C191.991562,213.477982 188.330276,213.236435 184.683121,213.366989 
	C181.647141,213.475662 180.597382,212.134583 180.640488,209.204391 
	C180.750320,201.735809 180.752686,194.263519 180.644577,186.794922 
	C180.602310,183.874115 181.618057,182.578568 184.670685,182.627197 
	C192.304962,182.748810 199.942978,182.730515 207.578186,182.647430 
	C210.382950,182.616913 211.425583,183.857040 211.350967,186.546600 
	C211.258911,189.863892 211.342270,193.186066 211.350006,197.003815 
z" />
	<path fill="#ffffff" opacity="1.000000" stroke="none" filter="url(#glow-effect)" d="
M240.659531,207.892227 
	C240.661606,200.594452 240.771255,193.784958 240.628708,186.980728 
	C240.561508,183.772888 241.761551,182.551498 244.981873,182.615936 
	C252.284409,182.762009 259.593323,182.750443 266.896545,182.624084 
	C269.988983,182.570587 271.448914,183.532990 271.381317,186.867462 
	C271.229919,194.335846 271.261017,201.810455 271.368225,209.280350 
	C271.410858,212.250885 270.284546,213.433350 267.270325,213.381348 
	C259.967102,213.255310 252.655319,213.187164 245.356720,213.411804 
	C241.519791,213.529907 240.249817,211.906113 240.659531,207.892227 
z" />
</svg>