<svg version="1.0" xmlns="http://www.w3.org/2000/svg" width="512.000000pt" height="512.000000pt"
    viewBox="0 0 512.000000 512.000000" preserveAspectRatio="xMidYMid meet">
    <defs>
        <filter id="glow-effect" x="-50%" y="-50%" width="200%" height="200%">
            <feFlood result="flood" flood-color="#00a6ff" flood-opacity="1"></feFlood>
            <feComposite in="flood" result="mask" in2="SourceGraphic" operator="in"></feComposite>
            <feGaussianBlur stdDeviation="50" result="coloredBlur" />
            <feMerge>
                <feMergeNode in="coloredBlur" />
                <feMergeNode in="SourceGraphic" />
            </feMerge>
        </filter>
    </defs>
    <g transform="translate(0.000000,512.000000) scale(0.100000,-0.100000)" fill="#ffffff" stroke="none" filter="url(#glow-effect)">
        <path d="M2356 4675 c-46 -16 -89 -56 -111 -101 -8 -18 -26 -87 -40 -154 -14
-67 -32 -137 -41 -156 -44 -93 -172 -140 -270 -99 -20 8 -82 56 -137 106 -177
160 -228 166 -400 50 -259 -174 -281 -232 -180 -458 52 -114 58 -135 58 -194
0 -55 -4 -72 -28 -107 -15 -23 -46 -54 -68 -69 -47 -31 -84 -34 -295 -19 -115
8 -124 8 -168 -14 -64 -30 -87 -69 -142 -235 -58 -176 -62 -231 -19 -300 26
-41 48 -58 150 -117 165 -95 215 -152 215 -248 0 -96 -50 -153 -215 -248 -193
-111 -212 -162 -141 -387 53 -166 78 -217 126 -250 52 -36 109 -41 269 -25
146 14 191 7 245 -41 19 -16 44 -50 57 -75 32 -68 24 -124 -44 -277 -101 -228
-80 -281 181 -459 90 -61 130 -78 179 -78 60 1 110 30 220 129 55 50 117 98
137 106 98 41 226 -6 270 -99 9 -19 27 -89 41 -156 29 -140 44 -179 91 -219
48 -43 90 -51 264 -51 174 0 216 8 264 51 47 40 62 79 91 219 14 67 32 137 41
156 44 93 172 140 270 99 20 -8 82 -56 137 -106 177 -160 228 -166 400 -50
258 174 281 231 180 458 -33 75 -58 148 -61 176 -6 63 19 126 68 171 57 51
103 61 230 47 157 -17 217 -14 268 10 59 29 84 70 138 234 57 173 61 229 21
298 -24 41 -45 57 -157 123 -71 42 -143 91 -159 110 -66 75 -66 193 0 268 16
19 88 68 159 110 112 66 133 82 157 123 40 69 36 125 -21 298 -54 164 -79 205
-138 234 -51 24 -111 27 -268 10 -127 -14 -173 -4 -230 47 -49 45 -74 108 -68
171 3 28 28 101 61 176 101 227 78 284 -180 458 -91 62 -131 79 -180 79 -60
-1 -110 -30 -220 -129 -55 -50 -117 -98 -137 -106 -98 -41 -226 6 -270 99 -9
19 -27 89 -41 156 -14 67 -32 137 -41 156 -22 45 -75 90 -121 103 -57 16 -349
13 -397 -4z m356 -329 c34 -154 69 -227 145 -296 130 -119 313 -148 469 -74
29 13 92 59 139 102 127 113 118 108 157 81 18 -12 63 -44 99 -72 l67 -49 -54
-122 c-59 -135 -74 -205 -62 -303 17 -157 145 -303 303 -349 48 -13 82 -16
170 -11 60 4 131 9 156 13 l46 6 37 -112 c20 -61 36 -115 36 -120 0 -4 -48
-35 -107 -70 -60 -34 -123 -75 -140 -90 -101 -91 -149 -207 -141 -343 11 -173
84 -275 277 -385 61 -35 111 -67 111 -72 0 -5 -16 -59 -36 -120 l-37 -112 -46
6 c-25 4 -96 9 -156 13 -170 9 -266 -26 -364 -133 -90 -98 -126 -215 -109
-348 5 -36 29 -108 62 -182 l54 -122 -67 -49 c-36 -28 -81 -60 -99 -72 -39
-27 -30 -32 -157 81 -100 89 -163 123 -255 137 -128 21 -254 -19 -353 -109
-76 -69 -111 -142 -145 -296 l-27 -129 -125 0 -125 0 -27 129 c-34 154 -69
227 -145 296 -105 96 -238 134 -372 106 -90 -19 -141 -48 -243 -140 -118 -105
-112 -102 -150 -75 -18 12 -63 44 -99 72 l-67 49 54 122 c59 135 74 205 62
303 -10 91 -50 167 -128 244 -92 91 -148 113 -290 113 -58 1 -139 -3 -181 -7
l-77 -8 -36 111 c-20 62 -36 115 -36 120 0 4 50 36 111 71 193 110 266 213
277 385 11 191 -67 313 -278 434 -61 34 -110 66 -110 70 0 5 16 59 36 120 l37
112 46 -6 c25 -4 96 -9 156 -13 88 -5 122 -2 170 11 181 53 305 216 306 402 1
89 -9 125 -70 262 l-49 110 67 49 c36 28 81 60 99 72 39 27 30 32 157 -81 47
-43 110 -89 139 -102 156 -74 339 -45 469 74 74 68 112 143 142 286 14 66 28
125 30 132 3 9 35 12 127 10 l123 -3 27 -129z" />
        <path d="M2441 3629 c-212 -26 -406 -109 -573 -245 -77 -63 -134 -130 -143
-167 -10 -38 20 -92 62 -112 57 -27 91 -14 186 73 101 92 197 149 327 194 93
32 99 33 260 32 159 0 169 -1 260 -32 137 -45 239 -109 341 -211 102 -102 166
-204 211 -341 31 -92 32 -101 32 -260 0 -159 -1 -168 -32 -260 -45 -135 -109
-238 -211 -341 -102 -102 -203 -165 -341 -211 -92 -31 -101 -32 -260 -32 -159
0 -168 1 -260 32 -137 45 -239 109 -341 211 -103 102 -166 206 -211 341 -28
87 -31 110 -37 273 l-6 179 -33 29 c-63 57 -150 30 -173 -54 -15 -55 -15 -264
0 -347 73 -400 350 -719 731 -843 208 -68 452 -68 660 0 381 124 660 445 731
843 15 87 15 268 -1 360 -77 447 -433 805 -875 879 -95 16 -224 20 -304 10z" />
    </g>
</svg>