<svg version="1.1" id="Layer_1" xmlns="http://www.w3.org/2000/svg" xmlns:xlink="http://www.w3.org/1999/xlink" x="0px"
	y="0px" width="100%" viewBox="0 0 512 512" enable-background="new 0 0 512 512" xml:space="preserve">
	<defs>
		<filter id="glow-effect" x="-50%" y="-50%" width="200%" height="200%">
			<feFlood result="flood" flood-color="#00a6ff" flood-opacity="1"></feFlood>
			<feComposite in="flood" result="mask" in2="SourceGraphic" operator="in"></feComposite>
			<feGaussianBlur stdDeviation="50" result="coloredBlur" />
			<feMerge>
				<feMergeNode in="coloredBlur" />
				<feMergeNode in="SourceGraphic" />
			</feMerge>
		</filter>
	</defs>

	<path fill="#ffffff" opacity="1.000000" stroke="none" filter="url(#glow-effect)" d="
M113.468658,513.000000 
	C111.720688,511.249115 109.736664,511.775635 108.005783,511.355164 
	C86.185883,506.054962 68.140289,494.908844 55.908623,475.806305 
	C47.265373,462.307922 42.561520,447.337189 42.646000,431.087891 
	C42.693653,421.922150 42.245129,412.734314 42.728165,403.593811 
	C44.634537,367.519592 50.289486,332.217560 67.974808,300.069031 
	C80.447807,277.395538 98.133179,260.192688 123.466881,252.204895 
	C134.789917,248.634705 146.427094,247.058701 158.307938,247.701218 
	C162.929565,247.951157 166.850403,250.242676 170.752045,252.479935 
	C182.849060,259.416504 193.782150,268.261597 206.480270,274.216461 
	C224.307114,282.576508 242.904236,288.142639 262.729614,286.473267 
	C284.581055,284.633209 304.740845,277.287872 322.942017,264.841003 
	C328.016846,261.370575 333.477478,258.429199 338.354797,254.711990 
	C350.109497,245.753220 363.289673,246.619751 376.533020,249.004440 
	C391.379395,251.677765 405.067902,257.274933 417.228668,266.523743 
	C428.128601,274.813629 436.567780,285.178131 443.307129,296.866364 
	C455.808563,318.548004 462.738861,342.113159 466.516083,366.803925 
	C468.880920,382.262177 469.758331,397.743958 470.670502,413.319122 
	C471.557312,428.461273 470.789337,443.248932 466.010681,457.446594 
	C456.619080,485.349579 436.746460,502.459229 408.607635,510.314270 
	C406.229736,510.978058 403.895203,511.797302 401.270264,512.772156 
	C305.312439,513.000000 209.624878,513.000000 113.468658,513.000000 
M192.499878,482.649841 
	C252.491852,482.649780 312.483948,482.704834 372.475647,482.580658 
	C380.070435,482.564941 387.726196,482.101410 395.212433,480.625336 
	C414.116425,476.897888 428.141571,466.863342 435.182831,448.456024 
	C438.829803,438.922028 439.656342,429.039703 438.937775,418.752594 
	C438.094910,406.686646 438.544891,394.562408 436.760895,382.502045 
	C433.254333,358.795929 428.554138,335.550201 416.313782,314.456665 
	C406.251373,297.116364 392.626923,284.598053 372.333038,280.878601 
	C367.422302,279.978577 362.331421,277.648163 357.348969,280.874481 
	C352.335510,284.120880 347.245911,287.257080 342.328491,290.643188 
	C319.277802,306.515717 293.733704,315.752808 265.966217,318.178772 
	C247.431442,319.798096 229.310104,316.537537 211.566071,310.875183 
	C193.457504,305.096497 177.374344,295.586670 161.973236,284.795013 
	C155.965622,280.585449 150.021103,278.418243 142.529922,280.305603 
	C131.126831,283.178558 120.266113,286.851959 111.662964,295.333344 
	C95.213432,311.550049 86.825279,332.069244 81.548470,353.888580 
	C75.676720,378.168030 73.461266,402.924896 74.235931,427.957336 
	C74.434052,434.359222 75.179420,440.513306 77.253944,446.516968 
	C82.178413,460.768433 91.491852,470.771332 105.408310,476.927826 
	C116.240433,481.719788 127.678604,482.089783 139.012527,482.485687 
	C156.488892,483.096191 174.002213,482.648285 192.499878,482.649841 
z" />
	<path fill="#ffffff" opacity="1.000000" stroke="none" filter="url(#glow-effect)" d="
M275.531342,1.000000 
	C277.976776,3.561730 281.111389,3.004763 283.701385,3.611670 
	C306.015137,8.840423 325.033783,20.094219 341.094482,36.041897 
	C361.139374,55.945709 373.216827,79.937080 376.477966,108.354271 
	C379.399017,133.808151 375.936768,158.106964 364.337189,180.868851 
	C354.115601,200.926697 338.920135,216.839569 320.186829,229.332413 
	C303.527405,240.442200 284.952423,246.618683 265.226379,248.129227 
	C237.998611,250.214249 212.017914,245.408356 188.437057,230.541672 
	C166.023087,216.410629 149.263153,197.331940 138.703003,173.152039 
	C132.980469,160.048950 129.877243,146.114883 129.597916,131.629990 
	C129.324448,117.450157 129.732498,103.360313 133.718002,89.649910 
	C137.680756,76.017792 143.596054,63.283035 152.109787,51.831398 
	C163.252655,36.843388 176.802902,24.567564 193.046875,15.296743 
	C206.492432,7.623049 220.972656,3.164620 236.646973,1.146977 
	C249.687561,1.000000 262.375122,1.000000 275.531342,1.000000 
M191.922714,55.442963 
	C188.188934,58.298168 185.452606,62.068558 182.404205,65.579910 
	C162.591858,88.401192 157.794052,115.064476 163.084259,143.863449 
	C166.686066,163.471085 177.353348,179.281723 191.998688,192.736313 
	C214.581772,213.483261 241.026337,220.133316 270.722748,215.069153 
	C294.497620,211.014801 312.987976,198.069290 327.427643,179.226089 
	C344.418732,157.053360 349.024658,131.938858 343.692230,104.831802 
	C339.762512,84.855125 329.121735,68.965073 314.191254,55.293415 
	C293.345520,36.205288 268.662201,29.908751 241.445602,32.683411 
	C222.871674,34.576965 206.309967,42.104946 191.922714,55.442963 
z" />
</svg>